<svg id="Layer_3" enable-background="new 0 0 64 64" height="512" viewBox="0 0 64 64" width="512" xmlns="http://www.w3.org/2000/svg"><g><path d="m53 43h-9.057l1.373-1.923c1.756-2.457 2.684-5.352 2.684-8.374 0-3.259-1.121-6.455-3.157-9.001l-1.062-1.327c-.266-.332-.712-.46-1.112-.318-.401.14-.669.518-.669.943v3.35c0 .91-.741 1.65-1.651 1.65-.744 0-1.349-.605-1.349-1.35 0-.244.066-.483.192-.693l.852-1.421c1.28-2.131 1.956-4.572 1.956-7.06v-.473c0-2.119-.501-4.241-1.449-6.137-1.169-2.338-2.972-4.284-5.213-5.63l-6.823-4.094c-.382-.229-.868-.178-1.194.124s-.414.783-.215 1.181l1.274 2.549c1.06 2.119 1.62 4.492 1.62 6.862 0 3.719-1.348 7.307-3.796 10.105l-1.291 1.475c-.43-3.411-2.416-6.507-5.398-8.296-.347-.208-.786-.187-1.11.054-.325.241-.473.654-.375 1.046l.754 3.017c.143.572.216 1.163.216 1.756 0 1.691-.596 3.339-1.679 4.638l-.508.61c-1.814 2.177-2.813 4.936-2.813 7.769v1.339c0 1.874.443 3.751 1.281 5.428.395.79.882 1.523 1.432 2.201h-5.713c-5.514 0-10 4.486-10 10s4.486 10 10 10h21 21c5.514 0 10-4.486 10-10s-4.486-10-10-10zm-37-8.968c0-2.366.834-4.671 2.349-6.489l.508-.609c1.382-1.659 2.143-3.76 2.143-5.919 0-.756-.093-1.511-.276-2.241l-.01-.042c1.448 1.672 2.286 3.84 2.286 6.1v1.168c0 .417.258.789.648.937.389.146.83.036 1.104-.278l2.956-3.378c2.768-3.163 4.292-7.219 4.292-11.423 0-2.489-.547-4.98-1.585-7.243l3.894 2.336c1.915 1.149 3.455 2.812 4.454 4.81.809 1.619 1.237 3.431 1.237 5.242v.473c0 2.125-.578 4.211-1.67 6.031l-.852 1.421c-.313.52-.478 1.116-.478 1.722 0 1.847 1.502 3.35 3.349 3.35 2.013 0 3.651-1.638 3.651-3.65v-.4c1.296 2.002 2 4.358 2 6.754 0 2.602-.799 5.096-2.312 7.212l-2.203 3.084h-1.553c-.141-1.123-.531-2.199-1.165-3.152-.502-.752-.767-1.628-.767-2.534 0-.705.167-1.412.482-2.043l1.412-2.824c.186-.371.123-.818-.158-1.124-.28-.305-.72-.405-1.107-.252l-.358.143c-2.648 1.06-4.521 3.333-5.09 6.038l-.009-.006c-.734-.489-1.172-1.308-1.172-2.189 0-.919.49-1.784 1.278-2.257 2.296-1.378 3.722-3.897 3.722-6.574 0-1.61-.38-3.223-1.101-4.663l-1.005-2.01c-.187-.374-.591-.595-1.005-.542-.416.045-.761.35-.862.756-1.202 4.809-4.386 8.927-8.738 11.3l-.328.179c-2.443 1.332-3.961 3.89-3.961 6.674 0 2.897 1.61 5.503 4.203 6.8l1.331.666c-.194.165-.384.334-.565.514l-2.826-1.211c-2.2-.943-4.002-2.642-5.073-4.783-.7-1.4-1.07-2.968-1.07-4.533zm16.062 4.878 1.383.922c.307.204.701.224 1.026.05s.529-.513.529-.882c0-1.518.526-2.936 1.441-4.05-.29.752-.441 1.559-.441 2.364 0 1.302.381 2.562 1.103 3.643.409.613.674 1.3.803 2.043h-5.906c-1.641 0-3.186.405-4.554 1.108l.001-.003-2.35-1.175c-1.91-.955-3.097-2.875-3.097-5.01 0-2.052 1.119-3.937 2.92-4.919l.328-.179c4.103-2.237 7.273-5.87 8.956-10.173.521 1.115.796 2.346.796 3.577 0 1.979-1.054 3.841-2.751 4.859-1.387.832-2.249 2.354-2.249 3.972 0 1.551.771 2.992 2.062 3.853zm-29.062 14.09c0-4.411 3.589-8 8-8s8 3.589 8 8-3.589 8-8 8-8-3.589-8-8zm13.974 8c2.438-1.825 4.026-4.727 4.026-8s-1.588-6.175-4.026-8h1.787c.795.609 1.662 1.126 2.594 1.525l2.296.984c-1.041 1.578-1.651 3.464-1.651 5.491 0 3.273 1.588 6.175 4.026 8zm7.026-8c0-4.411 3.589-8 8-8s8 3.589 8 8-3.589 8-8 8-8-3.589-8-8zm13.974 8c2.438-1.825 4.026-4.727 4.026-8 0-.934-.138-1.834-.379-2.693l.603-.302c1.318-.657 2.791-1.005 4.261-1.005h1.6c1.726 0 3.421.47 4.901 1.357 1.79 1.075 3.841 1.643 6.014 1.643l-.084-2c-1.726 0-3.421-.47-4.901-1.357-1.791-1.075-3.842-1.643-5.931-1.643h-1.6c-1.779 0-3.562.421-5.155 1.217l-.442.221c-.699-1.357-1.7-2.529-2.914-3.438h15.027c4.411 0 8 3.589 8 8 0 1.589-.471 3.067-1.273 4.313l-1.253-1.253c-1.328-1.329-3.095-2.06-4.974-2.06s-3.646.731-4.975 2.061l-.465.465c-.951.951-2.215 1.474-3.56 1.474h-2.5v2h2.5c1.879 0 3.646-.731 4.975-2.061l.465-.465c.951-.951 2.215-1.474 3.56-1.474s2.609.523 3.561 1.475l1.377 1.377c-1.43 1.328-3.338 2.148-5.438 2.148z"/><path d="m37 53c0 2.757-2.243 5-5 5s-5-2.243-5-5 2.243-5 5-5v-2c-3.86 0-7 3.141-7 7s3.14 7 7 7 7-3.141 7-7z"/><path d="m28 53h2c0-1.103.897-2 2-2s2 .897 2 2-.897 2-2 2v2c2.206 0 4-1.794 4-4s-1.794-4-4-4-4 1.794-4 4z"/><path d="m16 53c0 2.757-2.243 5-5 5s-5-2.243-5-5 2.243-5 5-5v-2c-3.86 0-7 3.141-7 7s3.14 7 7 7 7-3.141 7-7z"/><path d="m7 53h2c0-1.103.897-2 2-2s2 .897 2 2-.897 2-2 2v2c2.206 0 4-1.794 4-4s-1.794-4-4-4-4 1.794-4 4z"/></g></svg>